<?xml version="1.0" encoding="UTF-8" standalone="no"?>
<!-- Created with Inkscape (http://www.inkscape.org/) -->

<svg
   xmlns:dc="http://purl.org/dc/elements/1.1/"
   xmlns:cc="http://creativecommons.org/ns#"
   xmlns:rdf="http://www.w3.org/1999/02/22-rdf-syntax-ns#"
   xmlns:svg="http://www.w3.org/2000/svg"
   xmlns="http://www.w3.org/2000/svg"
   xmlns:sodipodi="http://sodipodi.sourceforge.net/DTD/sodipodi-0.dtd"
   xmlns:inkscape="http://www.inkscape.org/namespaces/inkscape"
   width="64pt"
   height="64pt"
   id="svg3642"
   sodipodi:version="0.32"
   inkscape:version="0.92.1 r"
   sodipodi:docname="decoration.svg"
   inkscape:output_extension="org.inkscape.output.svgz.inkscape"
   version="1.0"
   viewBox="0 0 64.000002 64.000002">
  <sodipodi:namedview
     id="base"
     pagecolor="#9e9e9e"
     bordercolor="#666666"
     borderopacity="1.0"
     inkscape:pageopacity="1"
     inkscape:pageshadow="2"
     inkscape:zoom="6.7734379"
     inkscape:cx="158.55993"
     inkscape:cy="69.331017"
     inkscape:current-layer="layer1"
     showgrid="true"
     inkscape:grid-bbox="true"
     inkscape:document-units="pt"
     inkscape:window-width="1280"
     inkscape:window-height="768"
     inkscape:window-x="0"
     inkscape:window-y="32"
     width="48px"
     height="48px"
     showguides="false"
     inkscape:guide-bbox="true"
     objecttolerance="9"
     gridtolerance="13"
     inkscape:snap-global="true"
     inkscape:snap-guide="false"
     guidetolerance="4"
     inkscape:window-maximized="1"
     inkscape:snap-grids="true"
     units="pt">
    <inkscape:grid
       visible="true"
       enabled="true"
       id="grid2555"
       type="xygrid"
       originx="0"
       originy="0"
       spacingx="1"
       spacingy="1" />
  </sodipodi:namedview>
  <defs
     id="defs3644">
    <linearGradient
       id="ShadowLinear">
      <stop
         offset="0"
         id="stop4099"
         style="stop-color:#000000;stop-opacity:0.45882353" />
      <stop
         id="stop4101"
         offset="0.22222291"
         style="stop-color:#000000;stop-opacity:0.2" />
      <stop
         offset="0.66666687"
         id="stop4103"
         style="stop-color:#000000;stop-opacity:0" />
      <stop
         offset="1"
         id="stop4105"
         style="stop-color:#000000;stop-opacity:0" />
    </linearGradient>
    <linearGradient
       id="ShadowRadial">
      <stop
         offset="0"
         id="stop5016"
         style="stop-color:#000000;stop-opacity:1" />
      <stop
         id="stop5018"
         offset="0.50587678"
         style="stop-color:#000000;stop-opacity:0.2" />
      <stop
         offset="0.75801307"
         id="stop5020"
         style="stop-color:#000000;stop-opacity:0" />
      <stop
         offset="1"
         id="stop5022"
         style="stop-color:#000000;stop-opacity:0" />
    </linearGradient>
  </defs>
  <metadata
     id="metadata3647">
    <rdf:RDF>
      <cc:Work
         rdf:about="">
        <dc:format>image/svg+xml</dc:format>
        <dc:type
           rdf:resource="http://purl.org/dc/dcmitype/StillImage" />
        <dc:title />
      </cc:Work>
    </rdf:RDF>
  </metadata>
  <g
     inkscape:groupmode="layer"
     inkscape:label="Layer 1"
     id="layer1"
     transform="translate(0,15.999994)">
    <g
       id="decoration-topleft"
       transform="matrix(1.5999999,0,0,1.6,-3.1999991,-16.001663)">
      <path
         inkscape:connector-curvature="0"
         sodipodi:nodetypes="cccccc"
         style="opacity:0.8;fill:#000000;fill-opacity:1;fill-rule:nonzero;stroke:none"
         d="M 9.5000001,0.62604312 H 4.4999997 c -1.2500001,0 -1.8750001,0.62499998 -1.8750001,1.87499998 v 5 h 6.8750005 z"
         id="path3745" />
      <path
         inkscape:connector-curvature="0"
         sodipodi:nodetypes="ccccccccc"
         id="path3480"
         d="m 4.4999994,0.001043 c -1.8749998,1.2e-7 -2.4999998,0.62500012 -2.4999998,2.5 v 5.0000001 h 0.625 v -5 c 0,-1.25 0.625,-1.87499998 1.8750001,-1.87499998 h 5.0000004 v -0.625 z"
         style="opacity:1;fill:#50b4f5;fill-opacity:1;fill-rule:nonzero;stroke:none" />
    </g>
    <g
       id="decoration-topright"
       transform="matrix(1.599955,0,0,1.6000389,-12.798064,-16.001853)">
      <path
         inkscape:connector-curvature="0"
         id="path3719"
         d="m 45.50007,0.62614665 c 1.250035,0 1.875052,0.62498485 1.875052,1.87495445 v 4.9998784 l -6.875192,-3e-7 -10e-7,-6.87483255 z"
         style="opacity:0.8;fill:#000000;fill-opacity:1;fill-rule:nonzero;stroke:none"
         sodipodi:nodetypes="cccccc" />
      <path
         inkscape:connector-curvature="0"
         style="opacity:1;fill:#50b4f5;fill-opacity:1;fill-rule:nonzero;stroke:none"
         d="M 45.50007,0.001043 C 46.750105,0.00116185 48.00014,0.62614665 48,2.5011038 l 1.4e-4,4.9998757 H 47.375122 V 2.5011011 c 0,-1.2499696 -0.625017,-1.87495445 -1.875053,-1.87495445 h -5.00014 c 10e-7,-0.10418394 0,-0.52080086 0,-0.6249848 z"
         id="path3504"
         sodipodi:nodetypes="ccccccccc" />
    </g>
    <g
       id="decoration-top"
       transform="matrix(0.99999976,0,0,1.5999485,6.0020611,-15.999995)">
      <path
         inkscape:connector-curvature="0"
         sodipodi:nodetypes="ccccc"
         style="opacity:0.8;fill:#000000;fill-opacity:1;fill-rule:nonzero;stroke:none;stroke-width:1.03223956"
         d="m 9.9999995,0.62485949 1e-7,6.87522151 H 42 l -10e-7,-6.87522151 z"
         id="path3727" />
      <path
         inkscape:connector-curvature="0"
         sodipodi:nodetypes="cccccc"
         style="opacity:1;fill:#50b4f5;fill-opacity:1;fill-rule:nonzero;stroke:none;stroke-width:1.03220642"
         d="m 9.9999996,5e-7 -1e-7,0.62485899 H 41.999999 L 41.997949,5e-7 c -0.03444,0 0.01205,0 0,0 -10.665982,1.3025e-4 -21.331969,-4.1982e-4 -31.9979494,0 z"
         id="path3506" />
    </g>
    <g
       id="decoration-center"
       transform="matrix(1.1377775,0,0,1.137772,4.6222499,-11.235564)">
      <path
         id="path3642"
         d="m 9.9999976,9.8750626 -1.26e-5,28.1249994 28.125,10e-7 V 9.8750626 Z"
         style="opacity:0.8;fill:#000000;fill-opacity:1;stroke:none"
         sodipodi:nodetypes="ccccc"
         inkscape:connector-curvature="0" />
    </g>
    <g
       id="decoration-left"
       transform="matrix(1.6000068,0,0,0.99999499,-3.2000129,-5.9998006)">
      <path
         id="path3735"
         d="m 9.4999677,6.000041 v 31.999956 l -6.8748294,10e-7 v -32 z"
         style="opacity:0.8;fill:#000000;fill-opacity:1;fill-rule:nonzero;stroke:none;stroke-width:1.03290987"
         sodipodi:nodetypes="ccccc"
         inkscape:connector-curvature="0" />
      <path
         id="path2706"
         d="m 2.6251383,5.999998 v 32 H 2.000148 v -32 z"
         style="opacity:1;fill:#50b4f5;fill-opacity:1;fill-rule:nonzero;stroke:none;stroke-width:1.03279555"
         inkscape:connector-curvature="0"
         sodipodi:nodetypes="ccccc" />
    </g>
    <g
       id="decoration-right"
       transform="matrix(-1.5999999,0,0,0.99999366,67.200225,-7.9997346)">
      <path
         id="path3735-9"
         d="M 9.5001412,8.0000382 V 39.999994 l -6.8751417,10e-7 V 7.9999527 Z"
         style="opacity:0.8;fill:#000000;fill-opacity:1;fill-rule:nonzero;stroke:none;stroke-width:1.03290999"
         sodipodi:nodetypes="ccccc"
         inkscape:connector-curvature="0" />
      <path
         id="path2706-6"
         d="M 2.6249995,7.9999527 V 39.999995 l -0.6248515,3e-6 v -32 z"
         style="opacity:1;fill:#50b4f5;fill-opacity:1;fill-rule:nonzero;stroke:none;stroke-width:1.03279555"
         inkscape:connector-curvature="0"
         sodipodi:nodetypes="ccccc" />
    </g>
    <g
       id="decoration-bottom"
       transform="matrix(0.9999997,0,0,1.5999093,13.003273,-60.79377)">
      <path
         style="opacity:0.8;fill:#000000;fill-opacity:1;fill-rule:nonzero;stroke:none;stroke-width:1.03273916"
         d="m 3.0002226,60.49954 -0.00349,6.875391 H 34.996738 l -10e-7,-6.875391 z"
         id="path3683-9-0"
         sodipodi:nodetypes="ccccc"
         inkscape:connector-curvature="0" />
      <path
         style="opacity:1;fill:#50b4f5;fill-opacity:1;fill-rule:nonzero;stroke:none;stroke-width:1.03273916"
         d="m 2.9967285,67.374931 0.00349,0.625029 c 10.6654995,1.6e-5 21.3310035,-1.9e-5 31.9965075,0 l 10e-7,-0.625029 z"
         id="path3490-9-1"
         sodipodi:nodetypes="ccccc"
         inkscape:connector-curvature="0" />
    </g>
    <g
       id="decoration-bottomleft"
       transform="matrix(1.599995,0,0,1.5999999,6.400015,-62.399748)">
      <path
         inkscape:connector-curvature="0"
         style="opacity:0.8;fill:#000000;fill-opacity:1;fill-rule:nonzero;stroke:none"
         d="m -3.3750199,61.49985 v 5 c 0,1.25 0.6250019,1.875001 1.8750058,1.875001 H 3.5000016 L 3.5000078,61.5 Z"
         id="path3753-5-9"
         sodipodi:nodetypes="cccccc" />
      <path
         inkscape:connector-curvature="0"
         sodipodi:nodetypes="cccccccccc"
         id="path3482-9-5"
         d="m -4.000022,61.499851 1e-7,4.999999 c 0,1.875001 0.625002,2.500001 2.5000078,2.500001 h 4.9999999 l 1.58e-5,-0.625 h -5.0000157 c -1.2500039,0 -1.8750058,-0.625001 -1.8750058,-1.875001 v -5 l -0.6250021,-7e-6 z"
         style="opacity:1;fill:#50b4f5;fill-opacity:1;fill-rule:nonzero;stroke:none" />
    </g>
    <g
       id="decoration-bottomright"
       transform="matrix(-1.5999457,0,0,1.5999506,57.600182,-62.396821)">
      <path
         inkscape:connector-curvature="0"
         style="opacity:0.8;fill:#000000;fill-opacity:1;fill-rule:nonzero;stroke:none"
         d="m -3.3750008,61.499916 v 5.000154 c 0,1.250039 0.6250212,1.875058 1.8750636,1.875058 h 5.0001697 l 3e-7,-6.875205 z"
         id="path3753-5-9-6"
         sodipodi:nodetypes="cccccc" />
      <path
         inkscape:connector-curvature="0"
         sodipodi:nodetypes="ccccccccc"
         id="path3482-9-5-3"
         d="m -1.4999372,69.000147 h 5.0001697 v -0.625019 h -5.0001697 c -1.2500424,0 -1.8750636,-0.625019 -1.8750636,-1.875058 V 61.499916 H -4.000022 v 5.000154 c 0,1.875058 0.6250212,2.500077 2.5000848,2.500077 z"
         style="opacity:1;fill:#50b4f5;fill-opacity:1;fill-rule:nonzero;stroke:none" />
    </g>
    <rect
       y="-19.999994"
       x="-4"
       height="4"
       width="4"
       id="hint-stretch-borders"
       style="opacity:0.875;fill:#008000;fill-opacity:1;stroke:none;stroke-width:0.85523593" />
    <g
       id="decoration-inactive-topleft"
       transform="matrix(1.5999999,0,0,1.6,96.800001,-16.001664)">
      <path
         inkscape:connector-curvature="0"
         sodipodi:nodetypes="cccccc"
         style="opacity:0.8;fill:#000000;fill-opacity:1;fill-rule:nonzero;stroke:none"
         d="M 9.5000001,0.62604312 H 4.4999997 c -1.2500001,0 -1.8750001,0.62499998 -1.8750001,1.87499998 v 5 h 6.8750005 z"
         id="path3745-4" />
      <path
         inkscape:connector-curvature="0"
         sodipodi:nodetypes="ccccccccc"
         id="path3480-7"
         d="m 4.4999994,0.001043 c -1.8749998,1.2e-7 -2.4999998,0.62500012 -2.4999998,2.5 v 5.0000001 h 0.625 v -5 c 0,-1.25 0.625,-1.87499998 1.8750001,-1.87499998 h 5.0000004 v -0.625 z"
         style="opacity:1;fill:#000000;fill-opacity:1;fill-rule:nonzero;stroke:none" />
    </g>
    <g
       id="decoration-inactive-topright"
       transform="matrix(1.599955,0,0,1.6000389,87.201936,-16.001854)">
      <path
         inkscape:connector-curvature="0"
         id="path3719-4"
         d="m 45.50007,0.62614665 c 1.250035,0 1.875052,0.62498485 1.875052,1.87495445 v 4.9998784 l -6.875192,-3e-7 -10e-7,-6.87483255 z"
         style="opacity:0.8;fill:#000000;fill-opacity:1;fill-rule:nonzero;stroke:none"
         sodipodi:nodetypes="cccccc" />
      <path
         inkscape:connector-curvature="0"
         style="opacity:1;fill:#000000;fill-opacity:1;fill-rule:nonzero;stroke:none"
         d="M 45.50007,0.001043 C 46.750105,0.00116185 48.00014,0.62614665 48,2.5011038 l 1.4e-4,4.9998757 H 47.375122 V 2.5011011 c 0,-1.2499696 -0.625017,-1.87495445 -1.875053,-1.87495445 h -5.00014 c 10e-7,-0.10418394 0,-0.52080086 0,-0.6249848 z"
         id="path3504-5"
         sodipodi:nodetypes="ccccccccc" />
    </g>
    <g
       id="decoration-inactive-top"
       transform="matrix(0.99999972,0,0,1.5999485,106,-15.999737)">
      <path
         inkscape:connector-curvature="0"
         sodipodi:nodetypes="ccccc"
         style="opacity:0.8;fill:#000000;fill-opacity:1;fill-rule:nonzero;stroke:none;stroke-width:1.03223956"
         d="m 9.9999995,0.62485949 1e-7,6.87522151 H 42 l -10e-7,-6.87522151 z"
         id="path3727-3" />
      <path
         inkscape:connector-curvature="0"
         sodipodi:nodetypes="cccccc"
         style="opacity:1;fill:#000000;fill-opacity:1;fill-rule:nonzero;stroke:none;stroke-width:1.03220642"
         d="m 9.9999996,5e-7 -1e-7,0.62485899 H 41.999999 L 41.997949,5e-7 c -0.03444,0 0.01205,0 0,0 -10.665982,1.3025e-4 -21.331969,-4.1982e-4 -31.9979494,0 z"
         id="path3506-6" />
    </g>
    <g
       id="decoration-inactive-center"
       transform="matrix(1.1377775,0,0,1.1448831,104.62225,-11.305786)">
      <path
         id="path3642-0"
         d="m 9.9999976,9.8750626 -1.26e-5,28.1249994 28.125,10e-7 V 9.8750626 Z"
         style="opacity:0.8;fill:#000000;fill-opacity:1;stroke:none"
         sodipodi:nodetypes="ccccc"
         inkscape:connector-curvature="0" />
    </g>
    <g
       id="decoration-inactive-left"
       transform="matrix(1.6000068,0,0,1.006245,96.799761,-6.0376241)">
      <path
         id="path3735-3"
         d="m 9.4999677,6.000041 v 31.999956 l -6.8748294,10e-7 v -32 z"
         style="opacity:0.8;fill:#000000;fill-opacity:1;fill-rule:nonzero;stroke:none;stroke-width:1.03290987"
         sodipodi:nodetypes="ccccc"
         inkscape:connector-curvature="0" />
      <path
         id="path2706-2"
         d="m 2.6251383,5.999998 v 32 H 2.000148 v -32 z"
         style="opacity:1;fill:#000000;fill-opacity:1;fill-rule:nonzero;stroke:none;stroke-width:1.03279555"
         inkscape:connector-curvature="0"
         sodipodi:nodetypes="ccccc" />
    </g>
    <g
       id="decoration-inactive-right"
       transform="matrix(-1.5999999,0,0,1.0062436,167.2,-8.0500577)">
      <path
         id="path3735-9-6"
         d="m 9.5000002,8.000041 v 31.999956 l -6.8750007,-2e-6 V 7.9999527 Z"
         style="opacity:0.8;fill:#000000;fill-opacity:1;fill-rule:nonzero;stroke:none;stroke-width:1.03290999"
         sodipodi:nodetypes="ccccc"
         inkscape:connector-curvature="0" />
      <path
         id="path2706-6-1"
         d="M 2.6249995,7.9999527 V 39.999995 l -0.6248515,3e-6 v -32 z"
         style="opacity:1;fill:#000000;fill-opacity:1;fill-rule:nonzero;stroke:none;stroke-width:1.03279555"
         inkscape:connector-curvature="0"
         sodipodi:nodetypes="ccccc" />
    </g>
    <g
       id="decoration-inactive-bottom"
       transform="matrix(0.99999966,0,0,1.5999093,113.00327,-60.793773)">
      <path
         style="opacity:0.8;fill:#000000;fill-opacity:1;fill-rule:nonzero;stroke:none;stroke-width:1.03273916"
         d="m 3.0002221,60.499539 c -0.00533,1.418373 0.00932,5.466362 -0.00349,6.875392 10.6655049,5.6e-5 32.0000059,0 32.0000059,0 l -10e-7,-6.875392 z"
         id="path3683-9-0-5"
         sodipodi:nodetypes="ccccc"
         inkscape:connector-curvature="0" />
      <path
         style="opacity:1;fill:#000000;fill-opacity:1;fill-rule:nonzero;stroke:none;stroke-width:1.03273916"
         d="m 2.9967285,67.374931 0.00349,0.625029 c 10.6654995,1.6e-5 21.3310035,-1.9e-5 31.9965075,0 l 10e-7,-0.625029 z"
         id="path3490-9-1-4"
         sodipodi:nodetypes="ccccc"
         inkscape:connector-curvature="0" />
    </g>
    <g
       id="decoration-inactive-bottomleft"
       transform="matrix(1.599995,0,0,1.5999999,106.40002,-62.399749)">
      <path
         inkscape:connector-curvature="0"
         style="opacity:0.8;fill:#000000;fill-opacity:1;fill-rule:nonzero;stroke:none"
         d="m -3.3750199,61.49985 v 5 c 0,1.25 0.6250019,1.875001 1.8750058,1.875001 H 3.5000016 L 3.5000078,61.5 Z"
         id="path3753-5-9-65"
         sodipodi:nodetypes="cccccc" />
      <path
         inkscape:connector-curvature="0"
         sodipodi:nodetypes="cccccccccc"
         id="path3482-9-5-6"
         d="m -4.000022,61.499851 1e-7,4.999999 c 0,1.875001 0.625002,2.500001 2.5000078,2.500001 h 4.9999999 l 1.58e-5,-0.625 h -5.0000157 c -1.2500039,0 -1.8750058,-0.625001 -1.8750058,-1.875001 v -5 l -0.6250021,-7e-6 z"
         style="opacity:1;fill:#000000;fill-opacity:1;fill-rule:nonzero;stroke:none" />
    </g>
    <g
       id="decoration-inactive-bottomright"
       transform="matrix(-1.5999457,0,0,1.5999506,157.60018,-62.396822)">
      <path
         inkscape:connector-curvature="0"
         style="opacity:0.8;fill:#000000;fill-opacity:1;fill-rule:nonzero;stroke:none"
         d="m -3.3750008,61.499916 v 5.000154 c 0,1.250039 0.6250212,1.875058 1.8750636,1.875058 h 5.0001697 l 3e-7,-6.875205 z"
         id="path3753-5-9-6-3"
         sodipodi:nodetypes="cccccc" />
      <path
         inkscape:connector-curvature="0"
         sodipodi:nodetypes="ccccccccc"
         id="path3482-9-5-3-7"
         d="m -1.4999372,69.000147 h 5.0001697 v -0.625019 h -5.0001697 c -1.2500424,0 -1.8750636,-0.625019 -1.8750636,-1.875058 V 61.499916 H -4.000022 v 5.000154 c 0,1.875058 0.6250212,2.500077 2.5000848,2.500077 z"
         style="opacity:1;fill:#000000;fill-opacity:1;fill-rule:nonzero;stroke:none" />
    </g>
  </g>
</svg>
