<?xml version="1.0" encoding="UTF-8" standalone="no"?>
<svg
   xmlns:dc="http://purl.org/dc/elements/1.1/"
   xmlns:cc="http://creativecommons.org/ns#"
   xmlns:rdf="http://www.w3.org/1999/02/22-rdf-syntax-ns#"
   xmlns:svg="http://www.w3.org/2000/svg"
   xmlns="http://www.w3.org/2000/svg"
   xmlns:sodipodi="http://sodipodi.sourceforge.net/DTD/sodipodi-0.dtd"
   xmlns:inkscape="http://www.inkscape.org/namespaces/inkscape"
   style="enable-background:new"
   version="1.1"
   id="svg4306"
   height="32pt"
   width="64pt"
   inkscape:version="0.92.1 r"
   sodipodi:docname="close.svg"
   viewBox="0 0 64 32">
  <sodipodi:namedview
     pagecolor="#808080"
     bordercolor="#666666"
     borderopacity="1"
     objecttolerance="10"
     gridtolerance="10"
     guidetolerance="10"
     inkscape:pageopacity="0.50196078"
     inkscape:pageshadow="2"
     inkscape:window-width="1280"
     inkscape:window-height="768"
     id="namedview38"
     showgrid="true"
     inkscape:zoom="7.9999996"
     inkscape:window-x="0"
     inkscape:window-y="32"
     inkscape:window-maximized="1"
     inkscape:current-layer="svg4306"
     inkscape:document-units="pt"
     units="pt"
     scale-x="1"
     viewbox-width="16"
     inkscape:pagecheckerboard="true"
     inkscape:cx="-33.340281"
     inkscape:cy="30.855122">
    <inkscape:grid
       type="xygrid"
       id="grid4503"
       units="pt"
       spacingx="0.99999997"
       spacingy="0.99999997"
       empspacing="4"
       color="#4040ff"
       opacity="0.1254902"
       empcolor="#4040ff"
       empopacity="0.25098039" />
  </sodipodi:namedview>
  <defs
     id="defs4308" />
  <metadata
     id="metadata4311">
    <rdf:RDF>
      <cc:Work
         rdf:about="">
        <dc:format>image/svg+xml</dc:format>
        <dc:type
           rdf:resource="http://purl.org/dc/dcmitype/StillImage" />
        <dc:title />
      </cc:Work>
    </rdf:RDF>
  </metadata>
  <g
     id="active-center">
    <path
       style="fill-opacity:0"
       d="M 0,0 H 16 V 16 H 0 Z"
       id="rect0"
       inkscape:connector-curvature="0" />
    <path
       inkscape:connector-curvature="0"
       style="fill:#c8c8c8;fill-opacity:1;stroke-width:0.9458127"
       d="m 5.2281532,5.2281531 c 0.3745739,-0.3745738 0.8240627,-0.2247443 1.048807,0 L 8,6.876278 9.7230394,5.2281531 c 0.2247435,-0.2247443 0.6742336,-0.3745738 1.0488076,0 0.374573,0.3745739 0.224744,0.7491476 0,1.0488068 L 9.1237216,7.9999994 10.771847,9.7230378 c 0.224744,0.224746 0.374573,0.7491502 0,1.0488092 -0.374574,0.374574 -0.8240641,0.224744 -1.0488076,0 L 8,9.1237208 6.2769602,10.771847 c -0.2247443,0.224744 -0.6742331,0.374574 -1.048807,0 -0.3745738,-0.374575 -0.2247443,-0.8240632 0,-1.0488092 L 6.8762783,7.9999994 5.2281532,6.2769599 c -0.2247443,-0.2247444 -0.3745738,-0.7491477 0,-1.0488068 z"
       id="path1" />
  </g>
  <g
     id="hover-center">
    <path
       style="fill-opacity:0"
       d="M 16,4.7736313e-8 H 32 V 16 H 16 Z"
       id="rect2"
       inkscape:connector-curvature="0" />
    <path
       inkscape:connector-curvature="0"
       style="fill:#c84040;fill-opacity:1;stroke-width:0.74999988"
       d="m 21.228153,5.2281537 c 0.374575,-0.3745739 0.824062,-0.2247443 1.048807,0 l 1.723039,1.6481247 1.72304,-1.6481247 c 0.224744,-0.2247443 0.674233,-0.3745739 1.048807,0 0.374574,0.3745737 0.224745,0.7491475 0,1.0488066 l -1.648125,1.7230391 1.648125,1.7230392 c 0.224745,0.2247458 0.374574,0.7491494 0,1.0488084 -0.374574,0.374574 -0.824063,0.224744 -1.048807,0 L 23.999999,9.1237213 22.27696,10.771847 c -0.224745,0.224744 -0.674232,0.374574 -1.048807,0 -0.374574,-0.374573 -0.224744,-0.8240626 0,-1.0488084 L 22.876278,7.9999994 21.228153,6.2769603 c -0.224744,-0.2247443 -0.374574,-0.7491475 0,-1.0488066 z"
       id="path3" />
  </g>
  <g
     id="pressed-center">
    <path
       style="fill-opacity:0"
       d="M 32,0 H 48 V 16 H 32 Z"
       id="rect4"
       inkscape:connector-curvature="0" />
    <path
       id="path5"
       d="m 40,0.50000048 c -4.081985,0 -7.5,3.41801502 -7.5,7.50000002 C 32.5,12.081985 35.918015,15.5 40,15.5 c 4.081985,0 7.5,-3.418015 7.5,-7.4999995 0,-4.081985 -3.418015,-7.50000002 -7.5,-7.50000002 z m 0,1.50000002 c 3.300778,0 6,2.6992219 6,6 C 46,11.300778 43.300778,14 40,14 c -3.300778,0 -6,-2.699222 -6,-5.9999995 0,-3.3007781 2.699222,-6 6,-6 z"
       style="fill:#c84040;fill-opacity:1"
       inkscape:connector-curvature="0" />
    <path
       inkscape:connector-curvature="0"
       style="fill:#c84040;fill-opacity:1"
       d="m 37.228153,5.228153 c 0.374575,-0.3745738 0.824062,-0.2247443 1.048807,0 L 40,6.8762779 41.72304,5.228153 c 0.224742,-0.2247443 0.674232,-0.3745738 1.048806,0 0.374574,0.3745739 0.224745,0.7491476 0,1.0488067 l -1.648124,1.7230394 1.648124,1.723041 c 0.224745,0.224743 0.374574,0.7491479 0,1.0488069 -0.374573,0.374574 -0.824064,0.224743 -1.048806,0 L 40,9.1237211 38.27696,10.771847 c -0.224745,0.224743 -0.674232,0.374574 -1.048807,0 -0.374574,-0.374574 -0.224744,-0.8240639 0,-1.0488069 l 1.648125,-1.723041 -1.648125,-1.7230394 c -0.224744,-0.2247443 -0.374574,-0.7491476 0,-1.0488067 z"
       id="path6" />
  </g>
  <g
     id="deactivated-center">
    <path
       style="fill:#000000;fill-opacity:0"
       d="M 48,0 H 64 V 16 H 48 Z"
       id="rect7-6-0"
       inkscape:connector-curvature="0" />
    <path
       inkscape:connector-curvature="0"
       style="fill:#808080;fill-opacity:1"
       d="m 53.228153,5.228155 c 0.374574,-0.374574 0.824063,-0.224747 1.048807,0 L 56,6.876279 57.72304,5.228155 c 0.224744,-0.224747 0.674233,-0.374574 1.048807,0 0.374574,0.374572 0.224744,0.749146 0,1.048806 l -1.648125,1.723038 1.648125,1.723042 c 0.224744,0.224743 0.374574,0.749148 0,1.048807 -0.374574,0.374574 -0.824063,0.224743 -1.048807,0 L 56,9.123721 54.27696,10.771848 c -0.224744,0.224743 -0.674233,0.374574 -1.048807,0 -0.374574,-0.374574 -0.224744,-0.824064 0,-1.048807 L 54.876278,7.999999 53.228153,6.276961 c -0.224744,-0.224745 -0.374574,-0.749148 0,-1.048806 z"
       id="path8-7-9" />
  </g>
  <g
     id="inactive-center">
    <path
       style="fill:#000000;fill-opacity:0"
       d="M 0,16 H 16 V 32 H 0 Z"
       id="rect7"
       inkscape:connector-curvature="0" />
    <path
       inkscape:connector-curvature="0"
       style="fill:#808080;fill-opacity:1"
       d="m 5.2281533,21.228155 c 0.3745741,-0.374574 0.8240627,-0.224747 1.0488069,0 l 1.7230396,1.648124 1.7230399,-1.648124 c 0.2247446,-0.224747 0.6742333,-0.374574 1.0488073,0 0.374574,0.374572 0.224744,0.749146 0,1.048806 l -1.6481249,1.723038 1.6481249,1.723042 c 0.224744,0.224743 0.374574,0.749148 0,1.048807 -0.374574,0.374574 -0.8240627,0.224743 -1.0488073,0 L 7.9999998,25.123721 6.2769602,26.771848 c -0.2247442,0.224743 -0.6742328,0.374574 -1.0488069,0 -0.374574,-0.374574 -0.2247443,-0.824064 0,-1.048807 l 1.648125,-1.723042 -1.648125,-1.723038 c -0.2247443,-0.224745 -0.374574,-0.749148 0,-1.048806 z"
       id="path8" />
  </g>
  <g
     id="hover-inactive-center">
    <path
       style="fill-opacity:0"
       d="M 16,16 H 32 V 32 H 16 Z"
       id="rect9"
       inkscape:connector-curvature="0" />
    <path
       inkscape:connector-curvature="0"
       style="fill:#c84040;fill-opacity:1"
       d="m 21.228153,21.228154 c 0.374575,-0.374574 0.824062,-0.224745 1.048807,0 L 24,22.876278 25.72304,21.228154 c 0.224743,-0.224745 0.674232,-0.374574 1.048806,0 0.374574,0.374574 0.224745,0.749148 0,1.048806 L 25.123722,24 l 1.648124,1.72304 c 0.224745,0.224745 0.374574,0.749148 0,1.048807 -0.374574,0.374574 -0.824063,0.224744 -1.048806,0 L 24,25.123722 22.27696,26.771847 c -0.224745,0.224744 -0.674232,0.374574 -1.048807,0 -0.374574,-0.374573 -0.224744,-0.824062 0,-1.048807 L 22.876278,24 21.228153,22.27696 c -0.224744,-0.224745 -0.374574,-0.749147 0,-1.048806 z"
       id="path10" />
  </g>
  <g
     id="pressed-inactive-center">
    <path
       style="fill-opacity:0"
       d="M 32,16 H 48 V 32 H 32 Z"
       id="rect4-3"
       inkscape:connector-curvature="0" />
    <path
       id="path5-5"
       d="m 40,16.5 c -4.081985,0 -7.5,3.418015 -7.5,7.5 0,4.081985 3.418015,7.5 7.5,7.5 4.081985,0 7.5,-3.418015 7.5,-7.5 0,-4.081985 -3.418015,-7.5 -7.5,-7.5 z m 0,1.5 c 3.300778,0 6,2.699222 6,6 0,3.300778 -2.699222,6 -6,6 -3.300778,0 -6,-2.699222 -6,-6 0,-3.300778 2.699222,-6 6,-6 z"
       style="fill:#c84040;fill-opacity:1"
       inkscape:connector-curvature="0" />
    <path
       inkscape:connector-curvature="0"
       style="fill:#c84040;fill-opacity:1"
       d="m 37.228153,21.228153 c 0.374575,-0.374574 0.824062,-0.224744 1.048807,0 L 40,22.876278 41.72304,21.228153 c 0.224742,-0.224744 0.674232,-0.374574 1.048806,0 0.374574,0.374574 0.224745,0.749148 0,1.048807 l -1.648124,1.723039 1.648124,1.723041 c 0.224745,0.224743 0.374574,0.749148 0,1.048807 -0.374573,0.374574 -0.824064,0.224743 -1.048806,0 L 40,25.123721 38.27696,26.771847 c -0.224745,0.224743 -0.674232,0.374574 -1.048807,0 -0.374574,-0.374574 -0.224744,-0.824064 0,-1.048807 l 1.648125,-1.723041 -1.648125,-1.723039 c -0.224744,-0.224745 -0.374574,-0.749148 0,-1.048807 z"
       id="path6-6" />
  </g>
  <g
     id="deactivated-inactive-center">
    <path
       style="fill:#000000;fill-opacity:0"
       d="M 48,16 H 64 V 32 H 48 Z"
       id="rect7-6"
       inkscape:connector-curvature="0" />
    <path
       inkscape:connector-curvature="0"
       style="fill:#808080;fill-opacity:1"
       d="m 53.228153,21.228155 c 0.374575,-0.374574 0.824063,-0.224747 1.048807,0 L 56,22.876279 57.72304,21.228155 c 0.224744,-0.224747 0.674233,-0.374574 1.048807,0 0.374574,0.374572 0.224744,0.749146 0,1.048806 l -1.648125,1.723038 1.648125,1.723042 c 0.224744,0.224743 0.374574,0.749148 0,1.048807 -0.374574,0.374574 -0.824063,0.224743 -1.048807,0 L 56,25.123721 54.27696,26.771848 c -0.224744,0.224743 -0.674232,0.374574 -1.048807,0 -0.374574,-0.374574 -0.224744,-0.824064 0,-1.048807 l 1.648125,-1.723042 -1.648125,-1.723038 c -0.224744,-0.224745 -0.374574,-0.749148 0,-1.048806 z"
       id="path8-7" />
  </g>
</svg>
